<?xml version="1.0" encoding="UTF-8"?>
<svg id="Capa_2" data-name="Capa 2" xmlns="http://www.w3.org/2000/svg" viewBox="0 0 489.79 190.11">
  <defs>
    <style>
      .cls-1 {
        font-family: Poppins-Regular, Poppins;
        font-size: 29.25px;
      }

      .cls-1, .cls-2 {
        fill: #fff;
      }

      .cls-3 {
        letter-spacing: .13em;
      }

      .cls-4 {
        letter-spacing: .13em;
      }

      .cls-5 {
        letter-spacing: .13em;
      }

      .cls-6 {
        fill: #f58151;
      }
    </style>
  </defs>
  <g id="Capa_1-2" data-name="Capa 1">
    <g>
      <polygon class="cls-2" points="223.28 28.9 243.59 28.9 243.59 109.22 225.37 109.22 191.7 65.11 191.7 109.22 171.39 109.22 171.39 28.9 189.62 28.9 223.28 73.12 223.28 28.9"/>
      <path class="cls-2" d="M296.6,27.5c26.12,0,41.55,17.41,41.55,41.44v.12c0,24.14-15.44,41.55-41.55,41.55h-.12c-26.12,0-41.55-17.41-41.55-41.55v-.12c0-24.03,15.44-41.44,41.55-41.44h.12ZM296.6,91.11c13,0,20.66-9.29,20.66-22.05v-.12c0-12.65-7.66-21.94-20.66-21.94h-.12c-13,0-20.66,9.29-20.66,21.94v.12c0,12.77,7.66,22.05,20.66,22.05h.12Z"/>
      <polygon class="cls-2" points="379.55 83.57 398.23 28.9 420.29 28.9 390.81 109.22 368.29 109.22 338.81 28.9 360.86 28.9 379.55 83.57"/>
      <path class="cls-2" d="M489.79,109.22h-22.05l-5.34-15.09h-31.34l-5.34,15.09h-22.05l31.8-80.32h22.52l31.8,80.32ZM446.72,50.37l-9.05,25.42h18.11l-9.05-25.42Z"/>
      <text class="cls-1" transform="translate(168.25 158.85) scale(1 1.03)"><tspan class="cls-4" x="0" y="0">INSURANCE</tspan><tspan class="cls-3" x="194.56" y="0" xml:space="preserve"> G</tspan><tspan class="cls-5" x="232.67" y="0">ROU</tspan><tspan x="304.6" y="0">P</tspan></text>
      <path class="cls-6" d="M0,0v118.25c28.06,28.07,43.79,43.79,71.86,71.86,14.03-14.03,24.98-24.98,35.92-35.93,10.95-10.95,21.9-21.9,35.93-35.93V0H0ZM130.45,112.76l-36.98,36.99-.89.89-20.72,20.72-16.71-16.71L13.25,112.76V13.26h117.2v99.51Z"/>
      <polygon class="cls-6" points="52.62 89.45 52.62 115.42 32.55 74.75 32.55 102.02 20.94 102.02 20.94 20.95 52.62 89.45"/>
      <polygon class="cls-6" points="69.88 158.72 69.88 18.94 56.62 18.94 56.4 144.62 69.88 158.72"/>
      <polygon class="cls-6" points="87.1 31.59 87.1 127.25 87.1 127.24 87.1 145.03 73.85 158.72 73.85 19.01 122.54 19.01 122.54 31.59 87.1 31.59"/>
      <polygon class="cls-6" points="122.83 54.11 122.87 111.31 91.11 140.8 91.11 123.02 109.29 105.77 109.29 84.61 100.22 93.2 90.85 84.31 122.83 54.11"/>
    </g>
  </g>
</svg>